<svg xmlns="http://www.w3.org/2000/svg" xmlns:xlink="http://www.w3.org/1999/xlink" xmlns:lucid="lucid" width="1004.16" height="1297.5"><g transform="translate(-198.99999997623573 -162.5027875743819)" lucid:page-tab-id=".Q4MUjXso07N"><path d="M200 179.5a16 16 0 0 1 16-16h260.2a16 16 0 0 1 16 16v165.34a16 16 0 0 1-16 16H216a16 16 0 0 1-16-16z" stroke="#dfe3e8" stroke-width="2" fill="#fff"/><path d="M255.62 235.96c0 1.48-1.2 2.68-2.68 2.68-1.47 0-2.67-1.2-2.67-2.68 0-1.47 1.2-2.67 2.67-2.67 1.48 0 2.68 1.2 2.68 2.66z" stroke="#333" stroke-width="1.05" fill="#fff"/><path d="M252.94 238.64v8.3c0 .54.12 1 .4 1.5l4.95 8.9m-5.36-9.6l-5.35 9.6m0-16.03h10.7" stroke="#333" stroke-width="1.05" fill="none"/><path d="M247.6 234.1c0-.45.35-.8.8-.8h9.1c.43 0 .8.35.8.8v22.45c0 .44-.37.8-.8.8h-9.1c-.45 0-.8-.36-.8-.8z" fill="none"/><path d="M264.97 283.82c0 5-5.38 9.03-12.03 9.03-6.64 0-12.03-4.04-12.03-9.03 0-4.98 5.4-9.02 12.04-9.02 6.65 0 12.03 4.04 12.03 9.02z" stroke="#000" fill="#e08fff"/><path d="M240.9 313.9c0-.33.28-.6.6-.6h22.87c.33 0 .6.27.6.6v16.85c0 .33-.27.6-.6.6H241.5c-.32 0-.6-.27-.6-.6z" stroke="#000" stroke-opacity="0" fill="#fbf0ff"/><use xlink:href="#a" transform="matrix(1,0,0,1,238.50296453670978,192.3800109920142) translate(0 20.514322916666668)"/><use xlink:href="#b" transform="matrix(1,0,0,1,238.50296453670978,192.3800109920142) translate(35.12526041666667 20.514322916666668)"/><use xlink:href="#c" transform="matrix(1,0,0,1,238.50296453670978,192.3800109920142) translate(77.63723958333335 20.514322916666668)"/><use xlink:href="#d" transform="matrix(1,0,0,1,238.50296453670978,192.3800109920142) translate(130.97500000000002 20.514322916666668)"/><use xlink:href="#e" transform="matrix(1,0,0,1,281.81879964050825,230.88297552872396) translate(0 20.514322916666668)"/><use xlink:href="#f" transform="matrix(1,0,0,1,281.81879964050825,269.3859400654337) translate(0 20.514322916666668)"/><use xlink:href="#g" transform="matrix(1,0,0,1,281.81879964050825,269.3859400654337) translate(35.31901041666667 20.514322916666668)"/><use xlink:href="#h" transform="matrix(1,0,0,1,281.81879964050825,307.8889046021435) translate(0 20.514322916666668)"/><path d="M529.62 171.5a8 8 0 0 1 8-8h657.54a8 8 0 0 1 8 8V1452a8 8 0 0 1-8 8H537.62a8 8 0 0 1-8-8z" stroke="#000" stroke-opacity="0" fill="#fbf0ff"/><use xlink:href="#i" transform="matrix(1,0,0,1,537.6214937276677,171.50278758948184) translate(248.57154947916666 28.02916666666667)"/><path d="M933.2 300.84c0 33.13-35.82 60-80 60-44.2 0-80-26.87-80-60 0-33.14 35.8-60 80-60 44.18 0 80 26.86 80 60z" stroke="#000" fill="#e08fff"/><use xlink:href="#j" transform="matrix(1,0,0,1,797.1961836767289,264.8361209228152) translate(29.157877604166664 31.819010416666664)"/><use xlink:href="#k" transform="matrix(1,0,0,1,797.1961836767289,264.8361209228152) translate(73.10904947916666 31.819010416666664)"/><use xlink:href="#l" transform="matrix(1,0,0,1,797.1961836767289,264.8361209228152) translate(1.7698567708333144 52.79166666666667)"/><path d="M383.27 599.75A19.75 19.75 0 0 1 403.02 580a19.75 19.75 0 0 1 19.75 19.75 19.75 19.75 0 0 1-19.75 19.75 19.75 19.75 0 0 1-19.75-19.75" stroke="#333" stroke-width="4" fill="#fff"/><path d="M360 586a6 6 0 0 1 6-6h74.04a6 6 0 0 1 6 6v146a6 6 0 0 1-6 6H366a6 6 0 0 1-6-6z" fill="none"/><path d="M403.02 619.5v55.3l43.02 63.2m-43.02-63.2L360 738m0-98.75h86.04" stroke="#333" stroke-width="4" fill="none"/><use xlink:href="#m" transform="matrix(1,0,0,1,280,738) translate(96.04769368489583 20.22104166666666)"/><path d="M933.2 443.84c0 33.13-35.82 60-80 60-44.2 0-80-26.87-80-60 0-33.14 35.8-60 80-60 44.18 0 80 26.86 80 60z" stroke="#000" fill="#e08fff"/><use xlink:href="#n" transform="matrix(1,0,0,1,797.1961836767289,407.8361209228152) translate(23.639648437499993 21.332682291666664)"/><use xlink:href="#o" transform="matrix(1,0,0,1,797.1961836767289,407.8361209228152) translate(18.091796875 42.305338541666664)"/><use xlink:href="#p" transform="matrix(1,0,0,1,797.1961836767289,407.8361209228152) translate(12.700520833333321 63.27799479166667)"/><path d="M933.2 586.84c0 33.13-35.82 60-80 60-44.2 0-80-26.87-80-60 0-33.14 35.8-60 80-60 44.18 0 80 26.86 80 60z" stroke="#000" fill="#e08fff"/><use xlink:href="#n" transform="matrix(1,0,0,1,797.1961836767289,550.8361209228152) translate(23.639648437499993 21.332682291666664)"/><use xlink:href="#q" transform="matrix(1,0,0,1,797.1961836767289,550.8361209228152) translate(9.695963541666664 42.305338541666664)"/><use xlink:href="#r" transform="matrix(1,0,0,1,797.1961836767289,550.8361209228152) translate(5.231445312499986 63.27799479166667)"/><path d="M933.2 729.84c0 33.13-35.82 60-80 60-44.2 0-80-26.87-80-60 0-33.14 35.8-60 80-60 44.18 0 80 26.86 80 60z" stroke="#000" fill="#e08fff"/><use xlink:href="#s" transform="matrix(1,0,0,1,797.1961836767289,693.8361209228152) translate(17.30891927083333 31.819010416666664)"/><use xlink:href="#t" transform="matrix(1,0,0,1,797.1961836767289,693.8361209228152) translate(12.763997395833329 52.79166666666667)"/><path d="M933.2 872.84c0 33.13-35.82 60-80 60-44.2 0-80-26.87-80-60 0-33.14 35.8-60 80-60 44.18 0 80 26.86 80 60z" stroke="#000" fill="#e08fff"/><use xlink:href="#u" transform="matrix(1,0,0,1,797.1961836767289,836.8361209228152) translate(24.95149739583333 31.819010416666664)"/><use xlink:href="#v" transform="matrix(1,0,0,1,797.1961836767289,836.8361209228152) translate(7.56315104166665 52.79166666666667)"/><path d="M933.2 1015.84c0 33.13-35.82 60-80 60-44.2 0-80-26.87-80-60 0-33.14 35.8-60 80-60 44.18 0 80 26.86 80 60z" stroke="#000" fill="#e08fff"/><use xlink:href="#w" transform="matrix(1,0,0,1,797.1961836767289,979.8361209228152) translate(-8.310221354166671 42.30533854166667)"/><path d="M933.2 1158.84c0 33.13-35.82 60-80 60-44.2 0-80-26.87-80-60 0-33.14 35.8-60 80-60 44.18 0 80 26.86 80 60z" stroke="#000" fill="#e08fff"/><use xlink:href="#x" transform="matrix(1,0,0,1,797.1961836767289,1122.836120922815) translate(41.64583333333333 31.819010416666664)"/><use xlink:href="#y" transform="matrix(1,0,0,1,797.1961836767289,1122.836120922815) translate(15.848958333333329 52.79166666666667)"/><path d="M933.2 1301.84c0 33.13-35.82 60-80 60-44.2 0-80-26.87-80-60 0-33.14 35.8-60 80-60 44.18 0 80 26.86 80 60z" stroke="#000" fill="#e08fff"/><use xlink:href="#z" transform="matrix(1,0,0,1,797.1961836767289,1265.836120922815) translate(33.0595703125 31.819010416666664)"/><use xlink:href="#A" transform="matrix(1,0,0,1,797.1961836767289,1265.836120922815) translate(19.513671874999993 52.79166666666667)"/><path d="M405.52 670l6.83-.15 6.9-.44 6.54-.67 6.2-.92 5.96-1.12 5.73-1.35 5.5-1.54 5.38-1.75 5.22-1.94 5.12-2.14 5.02-2.37 4.97-2.6 4.94-2.86 4.9-3.1 4.93-3.43 4.95-3.75 5-4.15 5.1-4.6 5.23-5.1 5.4-5.76 5.6-6.5 5.93-7.48 6.3-8.7 6.9-10.37 7.72-12.8 9.2-16.75 12.55-25.42 52.53-114.3 9.34-17.03 7.9-13.05 7.03-10.6 6.48-8.94 6.08-7.67 5.8-6.7 5.56-5.94 5.4-5.3 5.28-4.76 5.2-4.3 5.14-3.9 5.1-3.56 5.13-3.24 5.15-2.97 5.18-2.7 5.26-2.5 5.34-2.24 5.48-2.03 5.62-1.83 5.8-1.62 6.03-1.4 6.26-1.2 6.56-.97 6.9-.73 7.14-.45" stroke="#333" stroke-linejoin="round" fill="none"/><path d="M405.54 670l-3.52.06" stroke="#333" fill="none"/><path d="M772.76 302.75l-.5.02-.05-.94.52-.03z" stroke="#333" stroke-width=".05" fill="#333"/><path d="M772.2 586.85l-22.92.46-20 1.26-17.5 1.83-15.7 2.3-14.47 2.76-13.67 3.2-13.4 3.75-13.8 4.5-15.52 5.8-24.02 10.17-48.67 21.28-15.52 5.8-13.8 4.47-13.4 3.74-13.68 3.2-14.46 2.77-15.7 2.3-17.5 1.85-20 1.24-22.92.47" stroke="#333" stroke-linejoin="round" fill="none"/><path d="M772.7 586.83V587.3l-.5.02-.03-.95h.54z" stroke="#333" stroke-width=".05" fill="#333"/><path d="M405.53 670h-3.5" stroke="#333" fill="none"/><path d="M772.2 443.85l-8.6.17-8.54.54-8.1.85-7.7 1.15-7.38 1.4-7.12 1.68-6.9 1.92-6.75 2.2-6.6 2.45-6.53 2.75-6.5 3.06-6.5 3.4-6.57 3.8-6.7 4.25-6.9 4.8-7.2 5.46-7.64 6.35-8.33 7.5-9.46 9.3-11.62 12.4-18.75 21.84-44.63 53.5-11.62 12.4-9.46 9.28-8.35 7.5-7.65 6.34-7.2 5.47-6.9 4.78-6.68 4.25-6.57 3.8-6.5 3.4-6.5 3.06-6.54 2.74-6.6 2.46-6.74 2.18-6.9 1.93-7.12 1.68-7.4 1.4-7.7 1.15-8.08.85-8.55.53-8.58.2" stroke="#333" stroke-linejoin="round" fill="none"/><path d="M772.7 443.83V444.3l-.5.02-.03-.95h.54z" stroke="#333" stroke-width=".05" fill="#333"/><path d="M405.53 670h-3.5" stroke="#333" fill="none"/><path d="M772.2 729.83l-35.28-.73-32.4-2.03-31.14-3.27-32.7-4.84-41.4-7.96-185.56-40.17-9.32-1.54" stroke="#333" stroke-linejoin="round" fill="none"/><path d="M772.7 729.36v.95h-.53l.02-.95z" stroke="#333" stroke-width=".05" fill="#333"/><path d="M404.42 669.3l-.5-.1" stroke="#333" fill="none"/><path d="M772.2 872.83l-9.58-.2-9.4-.6-8.84-.92-8.38-1.23-8-1.52-7.67-1.8-7.42-2.07-7.2-2.35-7.08-2.63-6.97-2.93-6.94-3.26-6.95-3.63-7.05-4.07-7.22-4.6-7.5-5.22-7.98-6.05-8.7-7.2-9.92-8.95-12.54-12.3-68.5-72.6-9.94-8.97-8.7-7.2-7.95-6.04-7.5-5.22-7.24-4.6-7.04-4.06-6.96-3.64-6.94-3.26-6.97-2.94-7.08-2.63-7.22-2.33-7.4-2.07-7.7-1.8-7.98-1.52-8.38-1.24-8.85-.93-9.4-.58-9.58-.2" stroke="#333" stroke-linejoin="round" fill="none"/><path d="M772.7 872.36v.95h-.53l.02-.95z" stroke="#333" stroke-width=".05" fill="#333"/><path d="M405.53 669.4h-3.5" stroke="#333" fill="none"/><path d="M772.2 1015.83l-5.53-.12-5.8-.35-5.58-.6-5.43-.8-5.28-1-5.2-1.2-5.07-1.43-5.02-1.63-4.97-1.87-4.96-2.08-4.96-2.34-5-2.6-5.03-2.9-5.13-3.26L694 990l-5.37-4.1-5.56-4.6-5.8-5.22-6.1-6-6.5-6.9-7.02-8.14-7.72-9.75-8.74-12.07-10.43-15.7-13.9-23.07-69.92-125.4-10.42-15.7-8.75-12.07-7.72-9.76-7-8.13-6.5-6.9-6.1-6-5.8-5.23-5.58-4.6-5.38-4.1-5.23-3.63-5.13-3.25-5.04-2.93-5-2.6-4.96-2.34-4.96-2.1-4.98-1.84-5.02-1.64-5.08-1.42-5.17-1.2-5.28-1.02-5.43-.8-5.6-.6-5.77-.35-5.53-.12" stroke="#333" stroke-linejoin="round" fill="none"/><path d="M772.7 1015.36v.95h-.53l.02-.95z" stroke="#333" stroke-width=".05" fill="#333"/><path d="M405.53 670.74h-3.5" stroke="#333" fill="none"/><path d="M772.2 1158.83l-3.78-.08-4.16-.27-4.07-.42-4-.6-3.92-.74-3.88-.9-3.85-1.1-3.84-1.23-3.83-1.44-3.86-1.63-3.88-1.83-3.94-2.05-4-2.32-4.1-2.6-4.18-2.9-4.32-3.3-4.48-3.7-4.66-4.2-4.9-4.8-5.15-5.48-5.5-6.36-5.87-7.44-6.38-8.8-7.02-10.58-7.87-13-9.06-16.53-10.95-22.1-14.62-33-81.17-203.65-10.94-22.1-9.06-16.52-7.87-13-7.03-10.6-6.38-8.8-5.9-7.42-5.48-6.36-5.16-5.5-4.88-4.78-4.67-4.2-4.46-3.7-4.33-3.3-4.18-2.9-4.1-2.6-4-2.32-3.93-2.06-3.9-1.83-3.85-1.6-3.84-1.44-3.83-1.24-3.86-1.08-3.87-.9-3.92-.76-3.98-.6-4.06-.42-4.16-.26-3.78-.08" stroke="#333" stroke-linejoin="round" fill="none"/><path d="M772.7 1158.36v.95h-.53l.02-.95z" stroke="#333" stroke-width=".05" fill="#333"/><path d="M405.53 669.4h-3.5" stroke="#333" fill="none"/><path d="M772.2 1301.83l-2.83-.06-3.26-.2-3.2-.35-3.15-.46-3.13-.6-3.12-.73-3.1-.87-3.12-1-3.13-1.18-3.17-1.33-3.2-1.5-3.27-1.7-3.32-1.94-3.42-2.16-3.52-2.45-3.65-2.78-3.8-3.14-3.96-3.57-4.16-4.07-4.4-4.68-4.68-5.43-5-6.33-5.43-7.48-5.9-8.9-6.53-10.8-7.3-13.3-8.37-16.9-9.86-22.18-12.23-31.04-17.18-49.66-83.06-267.9-12.24-31.04-9.85-22.2-8.36-16.87-7.32-13.32-6.53-10.78-5.9-8.9-5.42-7.47-5.02-6.33-4.67-5.43-4.4-4.7-4.16-4.08-3.96-3.57-3.78-3.13-3.64-2.77-3.53-2.45-3.4-2.17-3.35-1.93-3.26-1.7-3.2-1.5-3.17-1.35-3.13-1.16-3.12-1.02-3.1-.87-3.13-.73-3.14-.6-3.16-.46-3.2-.33-3.25-.2-2.83-.06" stroke="#333" stroke-linejoin="round" fill="none"/><path d="M772.7 1301.36v.95h-.53l.02-.95z" stroke="#333" stroke-width=".05" fill="#333"/><path d="M405.53 670h-3.5" stroke="#333" fill="none"/><defs><path d="M750 21c-371 0-615-218-615-544v-967h305v942c0 174 123 299 310 299s309-125 309-299v-942h306v967c0 326-247 544-615 544" id="B"/><path d="M572 22C302 22 117-98 78-306l279-48c29 105 101 156 224 156 114 0 185-48 185-115 0-118-228-130-337-155-215-49-322-150-322-317 0-215 187-347 470-347 265 0 424 116 466 298l-266 47c-24-76-87-130-196-130-98 0-174 46-174 113 0 56 38 95 144 117l201 40c216 44 320 143 320 302 0 220-207 367-500 367" id="C"/><path d="M633 22C291 22 81-200 81-553c0-345 210-579 537-579 292 0 525 185 525 567v84H378c7 183 109 277 260 277 105 0 184-46 216-132l272 51C1071-99 893 22 633 22zM380-669h474c-15-146-94-237-233-237-143 0-229 99-241 237" id="D"/><g id="a"><use transform="matrix(0.008072916666666667,0,0,0.008072916666666667,0,0)" xlink:href="#B"/><use transform="matrix(0.008072916666666667,0,0,0.008072916666666667,12.101302083333335,0)" xlink:href="#C"/><use transform="matrix(0.008072916666666667,0,0,0.008072916666666667,21.360937500000002,0)" xlink:href="#D"/></g><path d="M628 22C291 22 81-210 81-554c0-346 210-578 547-578 265 0 455 142 497 372l-279 52c-25-116-99-188-215-188-160 0-244 139-244 341 0 200 84 341 244 341 116 0 193-74 217-195l279 51C1085-123 896 22 628 22" id="E"/><path d="M440 22C227 22 68-92 68-313c0-250 202-322 422-343 195-21 271-24 271-105 0-95-63-149-175-149-116 0-187 57-211 129l-275-46c57-194 237-305 487-305 240 0 474 108 474 379V0H777v-155h-10C713-51 605 22 440 22zm85-211c140 0 238-93 238-211v-121c-37 26-156 42-222 51-111 16-185 59-185 149 0 87 70 132 169 132" id="F"/><g id="b"><use transform="matrix(0.008072916666666667,0,0,0.008072916666666667,0,0)" xlink:href="#E"/><use transform="matrix(0.008072916666666667,0,0,0.008072916666666667,9.889322916666668,0)" xlink:href="#F"/><use transform="matrix(0.008072916666666667,0,0,0.008072916666666667,19.488020833333334,0)" xlink:href="#C"/><use transform="matrix(0.008072916666666667,0,0,0.008072916666666667,28.747656250000006,0)" xlink:href="#D"/></g><path d="M428-647V0H128v-1490h294v586c65-146 175-228 341-228 232 0 385 159 385 421V0H847v-659c0-139-76-222-202-222-128 0-217 86-217 234" id="G"/><path d="M128 418v-1536h295v188h14c41-89 129-202 319-202 248 0 453 193 453 575 0 372-197 576-455 576-183 0-275-108-317-198h-9v597H128zm534-640c156 0 240-139 240-336 0-196-83-334-240-334-154 0-241 131-241 334 0 202 88 336 241 336" id="H"/><g id="c"><use transform="matrix(0.008072916666666667,0,0,0.008072916666666667,0,0)" xlink:href="#C"/><use transform="matrix(0.008072916666666667,0,0,0.008072916666666667,9.259635416666667,0)" xlink:href="#G"/><use transform="matrix(0.008072916666666667,0,0,0.008072916666666667,19.55260416666667,0)" xlink:href="#F"/><use transform="matrix(0.008072916666666667,0,0,0.008072916666666667,29.151302083333334,0)" xlink:href="#H"/><use transform="matrix(0.008072916666666667,0,0,0.008072916666666667,39.573437500000004,0)" xlink:href="#D"/></g><path d="M128 0v-1490h300v802h17l366-430h347L740-633 1179 0H826L514-456l-86 97V0H128" id="I"/><path d="M120 396l69-226c123 42 245 23 254-107l8-60L31-1118h319c87 288 199 559 259 872 72-308 185-583 277-872h315L726 132c-68 181-186 294-410 294-79 0-153-13-196-30" id="J"/><g id="d"><use transform="matrix(0.008072916666666667,0,0,0.008072916666666667,0,0)" xlink:href="#I"/><use transform="matrix(0.008072916666666667,0,0,0.008072916666666667,9.219270833333335,0)" xlink:href="#D"/><use transform="matrix(0.008072916666666667,0,0,0.008072916666666667,18.769531249999996,0)" xlink:href="#J"/></g><path d="M52 0l541-1490h220L1361 0h-200l-149-416H398L254 0H52zm404-582h497c-103-290-145-390-251-756-108 377-145 460-246 756" id="K"/><path d="M613 24c-304 0-509-231-509-576 0-350 205-580 509-580 216 0 392 114 453 309l-173 49c-33-115-133-197-280-197-223 0-326 196-326 419 0 220 103 415 326 415 150 0 252-85 285-206l172 49C1010-95 832 24 613 24" id="L"/><path d="M598-1118v154H368v674c0 100 37 144 132 144 23 0 62-6 92-12L629-6c-37 13-88 20-134 20-193 0-307-107-307-290v-688H20v-154h168v-266h180v266h230" id="M"/><path d="M613 24c-304 0-509-231-509-576 0-350 205-580 509-580 305 0 511 230 511 580 0 345-206 576-511 576zm0-161c226 0 329-195 329-415 0-222-103-419-329-419-223 0-326 196-326 419 0 220 103 415 326 415" id="N"/><path d="M158 0v-1118h174v172h12c41-113 157-188 290-188 26 0 70 2 91 3v181c-11-2-60-10-108-10-161 0-279 109-279 260V0H158" id="O"/><g id="e"><use transform="matrix(0.008072916666666667,0,0,0.008072916666666667,0,0)" xlink:href="#K"/><use transform="matrix(0.008072916666666667,0,0,0.008072916666666667,11.407031250000001,0)" xlink:href="#L"/><use transform="matrix(0.008072916666666667,0,0,0.008072916666666667,20.852343750000003,0)" xlink:href="#M"/><use transform="matrix(0.008072916666666667,0,0,0.008072916666666667,26.09973958333334,0)" xlink:href="#N"/><use transform="matrix(0.008072916666666667,0,0,0.008072916666666667,36.013281250000006,0)" xlink:href="#O"/></g><path d="M763 24c-353 0-583-224-583-531v-983h190v968c0 214 149 370 393 370 243 0 391-156 391-370v-968h190v983c0 307-230 531-581 531" id="P"/><path d="M538 24C308 24 148-78 108-271l171-41c32 123 123 178 257 178 156 0 256-77 256-169 0-77-54-128-164-154l-186-44c-203-48-300-148-300-305 0-192 176-326 414-326 230 0 351 112 402 269l-163 42c-31-80-94-158-238-158-133 0-233 69-233 162 0 83 57 129 188 160l169 40c203 48 298 149 298 302 0 196-179 339-441 339" id="Q"/><path d="M628 24c-324 0-524-230-524-574 0-343 198-582 503-582 237 0 487 146 487 559v75H286c9 234 145 362 343 362 132 0 231-58 273-172l174 48C1024-91 857 24 628 24zM287-650h624c-17-190-120-322-304-322-192 0-309 151-320 322" id="R"/><g id="f"><use transform="matrix(0.008072916666666667,0,0,0.008072916666666667,0,0)" xlink:href="#P"/><use transform="matrix(0.008072916666666667,0,0,0.008072916666666667,12.303125000000001,0)" xlink:href="#Q"/><use transform="matrix(0.008072916666666667,0,0,0.008072916666666667,21.02994791666667,0)" xlink:href="#R"/></g><path d="M471 26C259 26 90-98 90-318c0-256 228-303 435-329 202-27 287-16 287-108 0-139-79-219-234-219-161 0-248 86-283 164l-173-57c86-203 278-265 451-265 150 0 419 46 419 395V0H815v-152h-12C765-73 660 26 471 26zm31-159c199 0 310-134 310-271v-155c-30 35-226 55-295 64-131 17-246 59-246 186 0 116 97 176 231 176" id="S"/><g id="g"><use transform="matrix(0.008072916666666667,0,0,0.008072916666666667,0,0)" xlink:href="#L"/><use transform="matrix(0.008072916666666667,0,0,0.008072916666666667,9.606770833333336,0)" xlink:href="#S"/><use transform="matrix(0.008072916666666667,0,0,0.008072916666666667,18.890625000000004,0)" xlink:href="#Q"/><use transform="matrix(0.008072916666666667,0,0,0.008072916666666667,27.61744791666667,0)" xlink:href="#R"/></g><path d="M657 26c-323 0-524-166-541-416h195c15 169 171 246 346 246 202 0 356-106 356-265 5-203-294-238-475-293-239-73-380-191-380-389 0-252 224-419 512-419 294 0 499 171 508 396H992c-17-145-151-228-328-228-193 0-321 102-321 242 0 156 175 211 284 241l149 41c160 44 422 134 422 412 0 244-197 432-541 432" id="T"/><path d="M140 405l46-156c120 36 205 19 263-150l32-93L54-1118h197c107 313 237 620 324 950 87-331 219-637 326-950h196L606 167c-68 178-176 259-334 259-64 0-113-12-132-21" id="U"/><path d="M158 0v-1118h175l1 205c55-151 181-225 313-225 147 0 245 90 285 228 53-141 190-228 352-228 194 0 352 125 352 384V0h-181v-749c0-161-105-225-225-225-151 0-243 103-243 244V0H807v-767c0-124-93-207-219-207-131 0-250 92-250 270V0H158" id="V"/><g id="h"><use transform="matrix(0.008072916666666667,0,0,0.008072916666666667,0,0)" xlink:href="#T"/><use transform="matrix(0.008072916666666667,0,0,0.008072916666666667,10.607812500000001,0)" xlink:href="#U"/><use transform="matrix(0.008072916666666667,0,0,0.008072916666666667,19.899739583333336,0)" xlink:href="#Q"/><use transform="matrix(0.008072916666666667,0,0,0.008072916666666667,28.626562500000006,0)" xlink:href="#M"/><use transform="matrix(0.008072916666666667,0,0,0.008072916666666667,33.87395833333334,0)" xlink:href="#R"/><use transform="matrix(0.008072916666666667,0,0,0.008072916666666667,43.51302083333334,0)" xlink:href="#V"/></g><path d="M628 22C291 22 81-210 81-554c0-346 210-578 547-578 336 0 547 232 547 578 0 344-211 576-547 576zm0-236c160 0 242-146 242-341 0-197-82-341-242-341S387-753 387-555c0 195 81 341 241 341" id="W"/><path d="M428-647V0H128v-1118h283l4 231c63-156 176-245 348-245 232 0 384 159 384 421V0H847v-659c0-139-76-222-202-222-128 0-217 86-217 234" id="X"/><path d="M443 0L31-1118h319c90 293 199 572 268 885 66-313 175-593 264-885h315L784 0H443" id="Y"/><path d="M128 0v-1118h290v195h12c54-169 184-238 367-200v268c-27-8-86-15-130-15-138 0-239 95-239 234V0H128" id="Z"/><path d="M49 0l509-1490h400L1480 0h-339l-115-346H497L386 0H49zm524-585h374c-75-213-124-402-192-666-66 268-110 453-182 666" id="aa"/><path d="M440-1490V0H135v-1490h305" id="ab"/><g id="i"><use transform="matrix(0.014127604166666669,0,0,0.014127604166666669,0,0)" xlink:href="#E"/><use transform="matrix(0.014127604166666669,0,0,0.014127604166666669,17.023763020833336,0)" xlink:href="#W"/><use transform="matrix(0.014127604166666669,0,0,0.014127604166666669,34.768033854166674,0)" xlink:href="#X"/><use transform="matrix(0.014127604166666669,0,0,0.014127604166666669,52.286263020833346,0)" xlink:href="#Y"/><use transform="matrix(0.014127604166666669,0,0,0.014127604166666669,69.11223958333335,0)" xlink:href="#D"/><use transform="matrix(0.014127604166666669,0,0,0.014127604166666669,86.34791666666669,0)" xlink:href="#Z"/><use transform="matrix(0.014127604166666669,0,0,0.014127604166666669,98.13033854166669,0)" xlink:href="#C"/><use transform="matrix(0.014127604166666669,0,0,0.014127604166666669,114.33470052083337,0)" xlink:href="#F"/><use transform="matrix(0.014127604166666669,0,0,0.014127604166666669,131.13242187500003,0)" xlink:href="#aa"/><use transform="matrix(0.014127604166666669,0,0,0.014127604166666669,152.73352864583336,0)" xlink:href="#ab"/></g><g id="j"><use transform="matrix(0.008463541666666668,0,0,0.008463541666666668,0,0)" xlink:href="#T"/><use transform="matrix(0.008463541666666668,0,0,0.008463541666666668,11.121093750000002,0)" xlink:href="#M"/><use transform="matrix(0.008463541666666668,0,0,0.008463541666666668,16.876302083333336,0)" xlink:href="#S"/><use transform="matrix(0.008463541666666668,0,0,0.008463541666666668,26.609375000000004,0)" xlink:href="#O"/><use transform="matrix(0.008463541666666668,0,0,0.008463541666666668,33.405598958333336,0)" xlink:href="#M"/></g><use transform="matrix(0.008463541666666668,0,0,0.008463541666666668,0,0)" xlink:href="#S" id="k"/><path d="M783 20c-382 0-661-292-661-764 0-473 279-766 661-766 302 0 548 182 601 489h-190c-42-204-217-313-411-313-268 0-476 208-476 590 0 381 209 588 476 588 195 0 369-110 411-313h190c-52 303-296 489-601 489" id="ac"/><path d="M338-670V0H158v-1118h173l1 207c72-158 192-221 342-221 226 0 378 139 378 422V0H872v-695c0-172-96-275-252-275-161 0-282 109-282 300" id="ad"/><path d="M481 0L54-1118h197c107 314 236 620 325 951 87-331 217-637 324-951h197L670 0H481" id="ae"/><path d="M158 0v-1118h180V0H158zm91-1301c-68 0-125-53-125-119s57-119 125-119c69 0 126 53 126 119s-57 119-126 119" id="af"/><g id="l"><use transform="matrix(0.008463541666666668,0,0,0.008463541666666668,0,0)" xlink:href="#ac"/><use transform="matrix(0.008463541666666668,0,0,0.008463541666666668,12.661458333333336,0)" xlink:href="#N"/><use transform="matrix(0.008463541666666668,0,0,0.008463541666666668,23.054687500000004,0)" xlink:href="#ad"/><use transform="matrix(0.008463541666666668,0,0,0.008463541666666668,33.04166666666667,0)" xlink:href="#ae"/><use transform="matrix(0.008463541666666668,0,0,0.008463541666666668,42.444661458333336,0)" xlink:href="#R"/><use transform="matrix(0.008463541666666668,0,0,0.008463541666666668,52.55013020833334,0)" xlink:href="#O"/><use transform="matrix(0.008463541666666668,0,0,0.008463541666666668,59.07552083333334,0)" xlink:href="#Q"/><use transform="matrix(0.008463541666666668,0,0,0.008463541666666668,68.22460937500001,0)" xlink:href="#S"/><use transform="matrix(0.008463541666666668,0,0,0.008463541666666668,77.95768229166669,0)" xlink:href="#M"/><use transform="matrix(0.008463541666666668,0,0,0.008463541666666668,83.62825520833336,0)" xlink:href="#af"/><use transform="matrix(0.008463541666666668,0,0,0.008463541666666668,87.82617187500003,0)" xlink:href="#N"/><use transform="matrix(0.008463541666666668,0,0,0.008463541666666668,98.2194010416667,0)" xlink:href="#ad"/></g><path d="M180 0v-1490h908v168H370v486h669v168H370v500h727V0H180" id="ag"/><path d="M180 0v-1490h510c348 0 508 194 508 460 0 198-88 351-276 417L1256 0h-220L726-579c-117 2-238 0-356 1V0H180zm190-747h312c235 0 327-108 327-283 0-177-92-293-329-293H370v576" id="ah"/><g id="m"><use transform="matrix(0.010192057291666664,0,0,0.010192057291666664,0,0)" xlink:href="#P"/><use transform="matrix(0.010192057291666664,0,0,0.010192057291666664,15.532695312499996,0)" xlink:href="#T"/><use transform="matrix(0.010192057291666664,0,0,0.010192057291666664,28.92505859375,0)" xlink:href="#ag"/><use transform="matrix(0.010192057291666664,0,0,0.010192057291666664,41.47148111979166,0)" xlink:href="#ah"/></g><g id="n"><use transform="matrix(0.008463541666666668,0,0,0.008463541666666668,0,0)" xlink:href="#ah"/><use transform="matrix(0.008463541666666668,0,0,0.008463541666666668,10.901041666666668,0)" xlink:href="#R"/><use transform="matrix(0.008463541666666668,0,0,0.008463541666666668,21.006510416666668,0)" xlink:href="#L"/><use transform="matrix(0.008463541666666668,0,0,0.008463541666666668,30.90885416666667,0)" xlink:href="#R"/><use transform="matrix(0.008463541666666668,0,0,0.008463541666666668,41.01432291666667,0)" xlink:href="#af"/><use transform="matrix(0.008463541666666668,0,0,0.008463541666666668,45.21223958333334,0)" xlink:href="#ae"/><use transform="matrix(0.008463541666666668,0,0,0.008463541666666668,54.61523437500001,0)" xlink:href="#R"/></g><path d="M789 20c-398 0-667-293-667-764 0-473 273-766 655-766 315 0 558 198 612 487h-196c-61-191-204-311-415-311-262 0-471 207-471 590 0 380 208 588 482 588 249 0 420-165 425-427H828v-166h572v163c0 370-256 606-611 606" id="ai"/><g id="o"><use transform="matrix(0.008463541666666668,0,0,0.008463541666666668,0,0)" xlink:href="#ai"/><use transform="matrix(0.008463541666666668,0,0,0.008463541666666668,12.932291666666668,0)" xlink:href="#O"/><use transform="matrix(0.008463541666666668,0,0,0.008463541666666668,19.457682291666668,0)" xlink:href="#S"/><use transform="matrix(0.008463541666666668,0,0,0.008463541666666668,29.190755208333336,0)" xlink:href="#V"/><use transform="matrix(0.008463541666666668,0,0,0.008463541666666668,44.37434895833334,0)" xlink:href="#V"/><use transform="matrix(0.008463541666666668,0,0,0.008463541666666668,59.557942708333336,0)" xlink:href="#S"/><use transform="matrix(0.008463541666666668,0,0,0.008463541666666668,69.291015625,0)" xlink:href="#O"/></g><g id="p"><use transform="matrix(0.008463541666666668,0,0,0.008463541666666668,0,0)" xlink:href="#ac"/><use transform="matrix(0.008463541666666668,0,0,0.008463541666666668,12.661458333333336,0)" xlink:href="#N"/><use transform="matrix(0.008463541666666668,0,0,0.008463541666666668,23.054687500000004,0)" xlink:href="#O"/><use transform="matrix(0.008463541666666668,0,0,0.008463541666666668,29.850911458333336,0)" xlink:href="#O"/><use transform="matrix(0.008463541666666668,0,0,0.008463541666666668,36.08854166666667,0)" xlink:href="#R"/><use transform="matrix(0.008463541666666668,0,0,0.008463541666666668,46.19401041666667,0)" xlink:href="#L"/><use transform="matrix(0.008463541666666668,0,0,0.008463541666666668,56.09635416666667,0)" xlink:href="#M"/><use transform="matrix(0.008463541666666668,0,0,0.008463541666666668,61.76692708333334,0)" xlink:href="#af"/><use transform="matrix(0.008463541666666668,0,0,0.008463541666666668,65.96484375000001,0)" xlink:href="#N"/><use transform="matrix(0.008463541666666668,0,0,0.008463541666666668,76.35807291666669,0)" xlink:href="#ad"/></g><path d="M600 0L52-1490h200c166 485 304 806 458 1336 156-533 285-846 449-1336h202L819 0H600" id="aj"/><path d="M677 24c-213 0-288-135-325-197h-20V0H158v-1490h180v551h14c37-59 106-193 324-193 279 0 474 222 474 576 0 356-194 580-473 580zm-27-161c209 0 317-186 317-421 0-232-105-413-317-413-206 0-314 166-314 413 0 249 111 421 314 421" id="ak"/><path d="M537 14c-226 0-379-139-379-422v-710h180v695c0 172 97 275 253 275 160 0 281-109 281-300v-670h181V0H879v-209C806-46 684 14 537 14" id="al"/><path d="M338-1490V0H158v-1490h180" id="am"/><g id="q"><use transform="matrix(0.008463541666666668,0,0,0.008463541666666668,0,0)" xlink:href="#aj"/><use transform="matrix(0.008463541666666668,0,0,0.008463541666666668,11.078776041666668,0)" xlink:href="#N"/><use transform="matrix(0.008463541666666668,0,0,0.008463541666666668,21.472005208333336,0)" xlink:href="#L"/><use transform="matrix(0.008463541666666668,0,0,0.008463541666666668,31.54361979166667,0)" xlink:href="#S"/><use transform="matrix(0.008463541666666668,0,0,0.008463541666666668,41.276692708333336,0)" xlink:href="#ak"/><use transform="matrix(0.008463541666666668,0,0,0.008463541666666668,51.88997395833334,0)" xlink:href="#al"/><use transform="matrix(0.008463541666666668,0,0,0.008463541666666668,62.13932291666668,0)" xlink:href="#am"/><use transform="matrix(0.008463541666666668,0,0,0.008463541666666668,66.33723958333334,0)" xlink:href="#S"/><use transform="matrix(0.008463541666666668,0,0,0.008463541666666668,76.07031250000001,0)" xlink:href="#O"/><use transform="matrix(0.008463541666666668,0,0,0.008463541666666668,82.86653645833334,0)" xlink:href="#U"/></g><path d="M611 442c-248 0-391-105-460-228l146-94c47 65 117 165 314 165 178 0 307-82 307-266v-224h-17C863-141 792-18 576-18c-268 0-472-195-472-546 0-346 197-568 476-568 216 0 288 133 326 193h17v-179h175V29c0 289-215 413-487 413zm-5-620c203 0 314-146 314-390 0-237-108-403-314-403-213 0-319 180-319 403 0 230 109 390 319 390" id="an"/><g id="r"><use transform="matrix(0.008463541666666668,0,0,0.008463541666666668,0,0)" xlink:href="#T"/><use transform="matrix(0.008463541666666668,0,0,0.008463541666666668,11.121093750000002,0)" xlink:href="#al"/><use transform="matrix(0.008463541666666668,0,0,0.008463541666666668,21.370442708333336,0)" xlink:href="#an"/><use transform="matrix(0.008463541666666668,0,0,0.008463541666666668,32.00065104166667,0)" xlink:href="#an"/><use transform="matrix(0.008463541666666668,0,0,0.008463541666666668,42.63085937500001,0)" xlink:href="#R"/><use transform="matrix(0.008463541666666668,0,0,0.008463541666666668,52.73632812500001,0)" xlink:href="#Q"/><use transform="matrix(0.008463541666666668,0,0,0.008463541666666668,61.88541666666668,0)" xlink:href="#M"/><use transform="matrix(0.008463541666666668,0,0,0.008463541666666668,67.55598958333334,0)" xlink:href="#af"/><use transform="matrix(0.008463541666666668,0,0,0.008463541666666668,71.75390625000001,0)" xlink:href="#N"/><use transform="matrix(0.008463541666666668,0,0,0.008463541666666668,82.1471354166667,0)" xlink:href="#ad"/><use transform="matrix(0.008463541666666668,0,0,0.008463541666666668,92.38802083333336,0)" xlink:href="#Q"/></g><path d="M158 418v-1536h174v179h20c37-59 106-193 324-193 279 0 474 222 474 576 0 356-194 580-473 580-213 0-288-135-325-197h-14v591H158zm492-555c209 0 317-186 317-421 0-232-105-413-317-413-206 0-314 166-314 413 0 249 111 421 314 421" id="ao"/><path d="M338-670V0H158v-1490h180v566c73-149 190-208 336-208 226 0 379 139 379 422V0H872v-695c0-172-96-275-252-275-161 0-282 109-282 300" id="ap"/><g id="s"><use transform="matrix(0.008463541666666668,0,0,0.008463541666666668,0,0)" xlink:href="#ah"/><use transform="matrix(0.008463541666666668,0,0,0.008463541666666668,10.901041666666668,0)" xlink:href="#R"/><use transform="matrix(0.008463541666666668,0,0,0.008463541666666668,21.006510416666668,0)" xlink:href="#ao"/><use transform="matrix(0.008463541666666668,0,0,0.008463541666666668,31.61979166666667,0)" xlink:href="#ap"/><use transform="matrix(0.008463541666666668,0,0,0.008463541666666668,41.86914062500001,0)" xlink:href="#O"/><use transform="matrix(0.008463541666666668,0,0,0.008463541666666668,48.39453125000001,0)" xlink:href="#S"/><use transform="matrix(0.008463541666666668,0,0,0.008463541666666668,58.12760416666667,0)" xlink:href="#Q"/><use transform="matrix(0.008463541666666668,0,0,0.008463541666666668,67.27669270833334,0)" xlink:href="#R"/></g><g id="t"><use transform="matrix(0.008463541666666668,0,0,0.008463541666666668,0,0)" xlink:href="#T"/><use transform="matrix(0.008463541666666668,0,0,0.008463541666666668,11.121093750000002,0)" xlink:href="#R"/><use transform="matrix(0.008463541666666668,0,0,0.008463541666666668,21.226562500000004,0)" xlink:href="#ad"/><use transform="matrix(0.008463541666666668,0,0,0.008463541666666668,31.46744791666667,0)" xlink:href="#M"/><use transform="matrix(0.008463541666666668,0,0,0.008463541666666668,36.96875000000001,0)" xlink:href="#R"/><use transform="matrix(0.008463541666666668,0,0,0.008463541666666668,47.07421875000001,0)" xlink:href="#ad"/><use transform="matrix(0.008463541666666668,0,0,0.008463541666666668,57.31510416666667,0)" xlink:href="#L"/><use transform="matrix(0.008463541666666668,0,0,0.008463541666666668,67.21744791666667,0)" xlink:href="#R"/><use transform="matrix(0.008463541666666668,0,0,0.008463541666666668,77.32291666666667,0)" xlink:href="#Q"/></g><g id="u"><use transform="matrix(0.008463541666666668,0,0,0.008463541666666668,0,0)" xlink:href="#T"/><use transform="matrix(0.008463541666666668,0,0,0.008463541666666668,11.121093750000002,0)" xlink:href="#ao"/><use transform="matrix(0.008463541666666668,0,0,0.008463541666666668,21.734375000000004,0)" xlink:href="#R"/><use transform="matrix(0.008463541666666668,0,0,0.008463541666666668,31.839843750000007,0)" xlink:href="#R"/><use transform="matrix(0.008463541666666668,0,0,0.008463541666666668,41.94531250000001,0)" xlink:href="#L"/><use transform="matrix(0.008463541666666668,0,0,0.008463541666666668,51.84765625000001,0)" xlink:href="#ap"/></g><g id="v"><use transform="matrix(0.008463541666666668,0,0,0.008463541666666668,0,0)" xlink:href="#ah"/><use transform="matrix(0.008463541666666668,0,0,0.008463541666666668,10.901041666666668,0)" xlink:href="#R"/><use transform="matrix(0.008463541666666668,0,0,0.008463541666666668,21.006510416666668,0)" xlink:href="#L"/><use transform="matrix(0.008463541666666668,0,0,0.008463541666666668,30.90885416666667,0)" xlink:href="#N"/><use transform="matrix(0.008463541666666668,0,0,0.008463541666666668,41.302083333333336,0)" xlink:href="#an"/><use transform="matrix(0.008463541666666668,0,0,0.008463541666666668,51.93229166666668,0)" xlink:href="#ad"/><use transform="matrix(0.008463541666666668,0,0,0.008463541666666668,62.17317708333334,0)" xlink:href="#af"/><use transform="matrix(0.008463541666666668,0,0,0.008463541666666668,66.37109375000001,0)" xlink:href="#M"/><use transform="matrix(0.008463541666666668,0,0,0.008463541666666668,72.04166666666669,0)" xlink:href="#af"/><use transform="matrix(0.008463541666666668,0,0,0.008463541666666668,76.23958333333336,0)" xlink:href="#N"/><use transform="matrix(0.008463541666666668,0,0,0.008463541666666668,86.63281250000003,0)" xlink:href="#ad"/></g><path d="M98-1322v-168h1126v168H757V0H567v-1322H98" id="aq"/><path d="M65 0l393-574-370-544h210c88 136 192 297 267 435 67-142 176-302 264-435h206L661-564 1053 0H844c-94-144-206-310-287-458C484-308 366-142 273 0H65" id="ar"/><path d="M798-719v166H144v-166h654" id="as"/><g id="w"><use transform="matrix(0.008463541666666668,0,0,0.008463541666666668,0,0)" xlink:href="#aq"/><use transform="matrix(0.008463541666666668,0,0,0.008463541666666668,9.834635416666668,0)" xlink:href="#R"/><use transform="matrix(0.008463541666666668,0,0,0.008463541666666668,19.550781250000004,0)" xlink:href="#ar"/><use transform="matrix(0.008463541666666668,0,0,0.008463541666666668,29.351562500000007,0)" xlink:href="#M"/><use transform="matrix(0.008463541666666668,0,0,0.008463541666666668,34.68359375000001,0)" xlink:href="#as"/><use transform="matrix(0.008463541666666668,0,0,0.008463541666666668,42.65625000000001,0)" xlink:href="#M"/><use transform="matrix(0.008463541666666668,0,0,0.008463541666666668,48.15755208333334,0)" xlink:href="#N"/><use transform="matrix(0.008463541666666668,0,0,0.008463541666666668,58.550781250000014,0)" xlink:href="#as"/><use transform="matrix(0.008463541666666668,0,0,0.008463541666666668,66.52343750000001,0)" xlink:href="#T"/><use transform="matrix(0.008463541666666668,0,0,0.008463541666666668,77.64453125000001,0)" xlink:href="#ao"/><use transform="matrix(0.008463541666666668,0,0,0.008463541666666668,88.25781250000001,0)" xlink:href="#R"/><use transform="matrix(0.008463541666666668,0,0,0.008463541666666668,98.36328125000001,0)" xlink:href="#R"/><use transform="matrix(0.008463541666666668,0,0,0.008463541666666668,108.46875000000001,0)" xlink:href="#L"/><use transform="matrix(0.008463541666666668,0,0,0.008463541666666668,118.37109375000001,0)" xlink:href="#ap"/></g><g id="x"><use transform="matrix(0.008463541666666668,0,0,0.008463541666666668,0,0)" xlink:href="#ai"/><use transform="matrix(0.008463541666666668,0,0,0.008463541666666668,12.932291666666668,0)" xlink:href="#R"/><use transform="matrix(0.008463541666666668,0,0,0.008463541666666668,23.03776041666667,0)" xlink:href="#M"/></g><path d="M180 0v-1490h901v168H370v510h643v168H370V0H180" id="at"/><path d="M577 24c-279 0-473-224-473-580 0-354 195-576 474-576 218 0 287 134 324 193h14v-551h180V0H922v-173h-20C865-111 790 24 577 24zm27-161c203 0 314-172 314-421 0-247-108-413-314-413-212 0-317 181-317 413 0 235 108 421 317 421" id="au"/><path d="M158 0v-1490h180v865h22l478-493h223L593-638 1096 0H865L456-523 338-412V0H158" id="av"/><g id="y"><use transform="matrix(0.008463541666666668,0,0,0.008463541666666668,0,0)" xlink:href="#at"/><use transform="matrix(0.008463541666666668,0,0,0.008463541666666668,9.546875000000002,0)" xlink:href="#R"/><use transform="matrix(0.008463541666666668,0,0,0.008463541666666668,19.652343750000004,0)" xlink:href="#R"/><use transform="matrix(0.008463541666666668,0,0,0.008463541666666668,29.757812500000007,0)" xlink:href="#au"/><use transform="matrix(0.008463541666666668,0,0,0.008463541666666668,40.37109375000001,0)" xlink:href="#ak"/><use transform="matrix(0.008463541666666668,0,0,0.008463541666666668,51.15364583333334,0)" xlink:href="#S"/><use transform="matrix(0.008463541666666668,0,0,0.008463541666666668,60.886718750000014,0)" xlink:href="#L"/><use transform="matrix(0.008463541666666668,0,0,0.008463541666666668,70.78906250000001,0)" xlink:href="#av"/></g><g id="z"><use transform="matrix(0.008463541666666668,0,0,0.008463541666666668,0,0)" xlink:href="#aq"/><use transform="matrix(0.008463541666666668,0,0,0.008463541666666668,10.207031250000002,0)" xlink:href="#O"/><use transform="matrix(0.008463541666666668,0,0,0.008463541666666668,16.732421875000004,0)" xlink:href="#S"/><use transform="matrix(0.008463541666666668,0,0,0.008463541666666668,26.46549479166667,0)" xlink:href="#L"/><use transform="matrix(0.008463541666666668,0,0,0.008463541666666668,36.36783854166667,0)" xlink:href="#av"/></g><path d="M180 0v-1490h510c348 0 508 209 508 474 0 266-160 477-507 477H370V0H180zm190-706h312c236 0 327-133 327-310 0-176-91-307-329-307H370v617" id="aw"/><g id="A"><use transform="matrix(0.008463541666666668,0,0,0.008463541666666668,0,0)" xlink:href="#aw"/><use transform="matrix(0.008463541666666668,0,0,0.008463541666666668,11.070312500000002,0)" xlink:href="#O"/><use transform="matrix(0.008463541666666668,0,0,0.008463541666666668,17.307942708333336,0)" xlink:href="#N"/><use transform="matrix(0.008463541666666668,0,0,0.008463541666666668,27.701171875000004,0)" xlink:href="#an"/><use transform="matrix(0.008463541666666668,0,0,0.008463541666666668,38.331380208333336,0)" xlink:href="#O"/><use transform="matrix(0.008463541666666668,0,0,0.008463541666666668,44.56901041666667,0)" xlink:href="#R"/><use transform="matrix(0.008463541666666668,0,0,0.008463541666666668,54.67447916666667,0)" xlink:href="#Q"/><use transform="matrix(0.008463541666666668,0,0,0.008463541666666668,63.82356770833334,0)" xlink:href="#Q"/></g></defs></g></svg>